<svg xmlns="http://www.w3.org/2000/svg" width="2756" height="638"><path fill="#141414" d="M0 3h101c1.125 6.75 1.125 6.75 1.346 10.195l.157 2.375.16 2.563.18 2.763q.294 4.585.584 9.172l.424 6.595q.7 10.913 1.387 21.825l.241 3.81a50606 50606 0 0 1 2.785 44.329l.131 2.095q.96 15.33 1.95 30.659c3.86 59.97 7.22 119.907 9.135 179.974l.127 3.957q.41 12.944.788 25.888l.098 3.298c.386 13.171.591 26.325.507 39.502h7l-.046-1.644c-.121-7.988.616-15.871 1.368-23.813l.431-4.672q.591-6.388 1.191-12.776.645-6.9 1.283-13.801 1.252-13.505 2.515-27.006 1.468-15.72 2.93-31.442 2.608-28.04 5.227-56.08 2.541-27.222 5.072-54.444a191676 191676 0 0 1 6.4-68.746q1.023-10.965 2.041-21.93 1.241-13.35 2.49-26.7.64-6.814 1.27-13.63.579-6.231 1.165-12.462l.42-4.521q.283-3.06.573-6.12l.321-3.441C163 6 163 6 164 3h94c8.366 80.864 16.665 161.734 25.303 246.818q1.761 17.358 3.528 34.714 1.853 18.219 3.703 36.438l2.048 20.154q.946 9.3 1.89 18.603l.691 6.803q.47 4.62.937 9.238l.28 2.732.25 2.485.218 2.146c.132 1.618.152 3.245.152 4.869h6l.025-1.737c1.181-83.014 3.55-165.96 6.626-248.926.419-11.317.83-22.635 1.241-33.952a96047 96047 0 0 1 1.582-43.288q.296-8.116.598-16.233l.217-5.895q.148-4.056.3-8.113l.082-2.278c.313-8.204.847-16.376 1.329-24.578h101c-2.313 30.063-2.313 30.063-3.745 45.001l-.32 3.347-.333 3.472-.708 7.464q-.762 8.035-1.53 16.069-1.14 11.947-2.273 23.893-2.028 21.343-4.063 42.685-1.778 18.66-3.553 37.32l-.239 2.508-.959 10.08q-4.488 47.174-8.982 94.347a615775 615775 0 0 0-10.02 105.286l-.255 2.673a802781 802781 0 0 1-7.866 82.644l-3.318 34.86q-2.134 22.44-4.273 44.88l-2.26 23.73q-.84 8.85-1.686 17.7l-.682 7.174-.927 9.723-.268 2.834-.253 2.63-.213 2.244c-.355 3.154-.825 6.294-1.274 9.436H245c-1.038-3.115-1.306-5.696-1.56-8.966l-.302-3.802-.321-4.2-.35-4.443q-.479-6.12-.95-12.24-.512-6.597-1.029-13.191-1.01-12.93-2.01-25.858-.816-10.51-1.634-21.02l-.235-3.018-.473-6.07q-2.218-28.491-4.426-56.983-1.897-24.444-3.802-48.886a182521 182521 0 0 1-4.886-62.8l-.233-3.01-1.634-20.983q-.998-12.793-1.987-25.588-.505-6.528-1.015-13.054-.467-5.979-.927-11.959-.166-2.16-.337-4.318c-.57-7.224-1.023-14.364-.889-21.611h-7l.038 1.889c.09 7.988-.466 15.87-1.132 23.826l-.357 4.394q-.488 5.997-.986 11.993-.534 6.483-1.062 12.966-1.036 12.682-2.082 25.363-1.216 14.772-2.425 29.546-2.16 26.356-4.33 52.713a134829 134829 0 0 0-4.46 54.325l-.26 3.178q-2.386 29.126-4.778 58.251l-1.69 20.593q-1.028 12.543-2.061 25.087-.528 6.399-1.052 12.799-.48 5.858-.964 11.716-.175 2.12-.347 4.237-.236 2.882-.476 5.765l-.266 3.232c-.336 3.387-.829 6.758-1.31 10.127H67c-4.598-40.233-4.598-40.233-6.247-55.853l-.587-5.523q-.786-7.398-1.568-14.796l-1.71-16.124q-1.672-15.76-3.341-31.52l-3.938-37.15-7.077-66.756q-3.379-31.89-6.76-63.78l-.417-3.929-1.662-15.668C14.89 146.596 14.89 146.596 6.106 63.224L4.543 48.403a58223 58223 0 0 1-2.715-25.774q-.472-4.477-.942-8.956l-.277-2.62C0 5.23 0 5.23 0 3M1114 3c181.757 0 181.757 0 204.875 21.375 19.479 20.974 20.449 49.914 20.379 76.853q.003 2.949.01 5.899c.008 5.347.004 10.695-.003 16.042-.004 5.789.003 11.578.008 17.366.01 11.319.007 22.637.002 33.955q-.008 13.806-.003 27.611v3.98l.002 5.996c.006 24.938 0 49.876-.01 74.814q-.014 33.176 0 66.35a110027 110027 0 0 1 .008 82.658l-.001 3.961q-.003 13.78.006 27.559.008 16.806-.007 33.612-.009 8.565 0 17.13.008 7.856-.009 15.714-.003 2.824.004 5.65c.062 25.882-1.38 52.066-19.261 72.475l-1.73 2.05c-11.811 12.97-28.681 17.632-45.27 20.95h-159zm96 84v464c18.988 1.565 18.988 1.565 27-3 4.934-5.201 5.149-9.417 5.134-16.341l.007-2.258q.009-3.767.006-7.532l.011-5.438q.014-7.489.017-14.977.007-8.07.022-16.14c.02-12.996.03-25.993.039-38.99l.015-18.352a126927 126927 0 0 0 .044-76.823l.002-3.974c.008-21.256.033-42.512.066-63.769q.049-32.721.054-65.441c.002-12.252.011-24.504.036-36.755q.034-15.648.02-31.295c-.004-5.323-.002-10.647.017-15.97q.026-7.31.001-14.62-.004-2.643.014-5.289c.285-12.142.285-12.142-4.505-23.036-8.266-6.406-17.482-4-28-4M685 3c182.19 0 182.19 0 204.438 20.875 9.055 9.771 14.719 21.79 17.812 34.625l.495 2.047c2.406 10.747 2.408 21.647 2.416 32.61l.015 4.489q.019 6.057.024 12.114l.012 7.612q.02 11.968.027 23.937.007 13.7.05 27.399.034 10.662.034 21.324 0 6.332.025 12.665c.203 50.186.203 50.186-7.348 72.303l-.636 1.875C895.91 295.473 884.412 310.111 868 321l2.965 1.652c16.73 9.529 27.483 21.603 33.012 40.5 5.938 22.325 6.333 45.55 6.25 68.524v6.72c.002 5.993-.01 11.985-.024 17.977-.013 6.295-.014 12.59-.016 18.886a26716 26716 0 0 1-.036 31.612q-.029 16.258-.041 32.517l-.002 2.035-.007 10.11c-.021 27.822-.058 55.644-.101 83.467h-96l-.06-22.271a105044 105044 0 0 0-.257-81.538l-.008-2.204q-.059-17.666-.102-35.33-.048-18.13-.116-36.26-.039-10.182-.06-20.363-.02-9.584-.064-19.167-.014-3.518-.017-7.034-.008-4.804-.038-9.608l.006-2.806c-.068-7.982-.961-15.09-6.284-21.419-8.411-5.503-8.411-5.503-26-5v263h-96zm96 84v192c14.922 1.012 14.922 1.012 27.938-4.312 4.881-6.361 5.184-13.48 5.196-21.302l.013-3.908-.002-4.235.01-4.501q.014-6.093.012-12.187l.006-7.627q.014-13.323.012-26.648.001-12.387.026-24.776.019-10.66.018-21.323-.002-6.355.013-12.712.014-5.984.003-11.967a893 893 0 0 1 .007-4.37c.287-14.005.287-14.005-3.877-27.132-8.772-7.387-18.187-5-29.375-5M527.445-.168l4.741-.01q4.95-.009 9.899-.007c4.178 0 8.356-.014 12.535-.031q4.893-.015 9.786-.013 2.307 0 4.614-.013C594.754-.362 620.743 3.188 640 22c18.754 21.647 20.324 48.134 20.254 75.38q.003 2.992.01 5.985c.008 5.432.004 10.863-.003 16.295-.004 5.877.003 11.754.008 17.632.01 11.494.007 22.987.002 34.481a38808 38808 0 0 0-.001 38.164q.007 37.98-.01 75.957-.014 33.69 0 67.377a113419 113419 0 0 1 .008 83.918v2.013q-.004 14.998.005 29.995.009 17.065-.007 34.131-.009 8.699 0 17.396a5121 5121 0 0 1-.009 15.955q-.002 2.871.004 5.741c.06 25.772-1.715 52.761-20.261 72.58l-2.098 2.258c-14.671 14.451-35.526 19.874-55.634 19.903l-2.527.015q-4.105.021-8.21.027l-2.859.009q-7.497.022-14.994.028c-5.12.006-10.238.03-15.357.058-3.974.019-7.948.024-11.922.026q-2.827.004-5.655.024c-24.742.162-48.39-4.418-66.744-22.348-13-15.897-19.178-35.125-19.131-55.591l-.007-2.557q-.006-4.243-.002-8.485l-.01-6.145q-.011-8.443-.01-16.888c-.002-6.07-.01-12.142-.016-18.213q-.02-20.955-.025-41.909-.003-10.36-.01-20.723a178904 178904 0 0 1-.03-91.095c-.003-23.988-.02-47.976-.042-71.965a82468 82468 0 0 1-.04-84.502v-2.08q-.005-16.541-.027-33.081-.022-16.642-.01-33.286.008-9.008-.011-18.015-.019-8.259 0-16.518.004-2.976-.01-5.95c-.105-25.458 3.918-48.492 22.022-67.72C475.835 1.751 502.133-.156 527.445-.168M534 88c-3.297 4.945-3.146 9.76-3.131 15.558l-.007 2.292q-.006 3.814-.002 7.63l-.01 5.514q-.011 7.588-.01 15.175c-.002 5.453-.01 10.906-.016 16.358q-.02 17.888-.024 35.777l-.012 22.332q-.019 30.908-.026 61.814v3.996l-.002 12.044v2.012q-.007 32.314-.043 64.628-.038 34.166-.04 68.332.001 18.624-.025 37.248-.023 15.855-.012 31.711c.004 5.395.003 10.789-.011 16.183q-.019 7.407 0 14.814.004 2.68-.01 5.36c-.01 2.429-.003 4.857.01 7.286l-.024 2.1c.056 5.255 1.243 9.11 3.395 13.836 6.009 4.273 13.89 3.833 21 3 3.771-1.334 5.513-2.223 7.649-5.631 1.532-3.82 1.769-7.073 1.729-11.118l.013-2.318c.01-2.566 0-5.132-.01-7.698q.005-2.786.014-5.571c.013-5.106.006-10.211-.003-15.317-.007-5.505.004-11.01.012-16.515.013-10.786.01-21.572.002-32.357q-.01-13.146-.005-26.293l.002-3.776.003-7.596c.008-23.075 0-46.15-.016-69.225q-.021-31.6.001-63.201a66470 66470 0 0 0 .01-78.566l-.001-3.762q-.003-13.133.009-26.267.013-16-.01-32.001a4998 4998 0 0 1-.001-16.335q.013-7.471-.012-14.944-.005-2.708.006-5.414c.009-2.449 0-4.897-.014-7.346l.02-2.134c-.061-5.406-1.446-9.396-5.027-13.467-3.698-1.79-7.256-1.582-11.308-1.523l-2.42-.035c-4.689.023-7.86.352-11.643 3.41M1469.403-.26c3.664.01 7.327.004 10.991-.008 66.675-.178 66.675-.178 89.461 21.928 15.841 17.284 18.058 39.01 18.68 61.469l.13 4.43q.136 4.641.265 9.282.13 4.68.27 9.363c.246 8.216.47 16.432.648 24.65.102 4.509.262 9.012.447 13.519q.095 3.249.185 6.498l.161 2.916c.12 6.233.12 6.233-2.012 8.982-3.046 2.595-6.344 4.428-10.086 5.844-6.042 2.497-11.564 5.729-17.195 9.032-3.012 1.759-6.047 3.478-9.078 5.203a4913 4913 0 0 0-20.52 11.777l-3.187 1.837a2189 2189 0 0 0-16.454 9.589l-3.362 1.976q-3.184 1.874-6.361 3.759l-2.855 1.679c-.83.49-1.659.982-2.513 1.488C1495 216 1495 216 1493 216l-.007-2.045q-.089-24.637-.229-49.276-.07-11.915-.11-23.83a6286 6286 0 0 0-.103-20.772 2282 2282 0 0 1-.049-10.997c-.007-4.094-.037-8.188-.07-12.282l.005-3.675c-.043-7.995-.043-7.995-3.437-15.123-3.97-2.432-7.93-2.268-12.5-2.25l-3.906-.016c-4.595.28-4.595.28-8.594 2.266-3.064 6.453-3.426 11.987-3.372 19.06l-.011 3.274c-.008 3.558.005 7.116.02 10.674q0 3.732-.002 7.465c0 5.88.015 11.76.036 17.64.02 5.984.015 11.968.01 17.952-.004 5.14.003 10.28.012 15.422q.006 3.675.004 7.35c-.233 32.31-.233 32.31 15.51 59.57 3.616 3.553 7.495 6.479 11.668 9.343l2.25 1.566c5.526 3.82 11.139 7.495 16.794 11.119 11.47 7.355 22.784 14.948 34.081 22.565l2.68 1.805c20.879 14.142 36.41 29.109 41.87 54.757 4.869 26.4 4.606 53.372 4.584 80.105q-.002 6.16.002 12.319.003 10.353-.006 20.706-.006 11.83.002 23.66.007 10.278.003 20.558-.003 6.084.001 12.168c.011 15.39-.03 30.78-.408 46.164-.047 1.96-.081 3.919-.115 5.878-.662 22.99-7.787 43.666-24.613 59.88-19.9 16.955-45.188 19.156-70.227 19.168l-4.673.01q-4.879.009-9.758.007c-4.117 0-8.235.014-12.353.031q-4.823.015-9.647.013-2.273 0-4.547.013c-13.562.064-27.647-.35-40.67-4.492l-2.123-.657c-10.85-3.509-18.945-9.063-27.002-17.093l-1.934-1.863c-18.193-18.923-18.395-47.548-18.613-72.043l-.032-3.416a4423 4423 0 0 1-.121-17.838 1329 1329 0 0 0-.164-14.723c-.099-5.955-.148-11.91-.163-17.866a445 445 0 0 0-.091-6.784c-.353-17.618-.353-17.618 3.2-22.084 2.62-1.602 4.98-2.523 7.918-3.383l3.261-1.896 2.856-1.627c1.087-.62 2.174-1.24 3.293-1.88l3.465-1.972 3.691-2.105 7.644-4.359q7.17-4.089 14.336-8.187 3.446-1.97 6.892-3.936a4127 4127 0 0 0 16.48-9.449q3.908-2.254 7.822-4.503 1.875-1.08 3.746-2.164 2.586-1.497 5.178-2.984l2.983-1.723C1458 408 1458 408 1460 408l.01 2.18q.121 26.28.278 52.558.076 12.708.134 25.417.05 11.079.12 22.159.04 5.863.061 11.728.02 5.525.064 11.05c.014 1.989.017 3.977.02 5.965-.107 10.418-.107 10.418 3.641 19.916 3.578 2.198 8.04 1.495 12.11 1.465l2.892.06 2.791-.002 2.545.006c3.216-.692 4.264-1.966 6.334-4.502 2.53-9.1 2.284-18.955 2.23-28.332v-4.119c0-3.687-.014-7.375-.032-11.062q-.015-3.471-.024-6.943a8050 8050 0 0 0-.158-31.993q-.023-3.84-.045-7.683-.083-15.12-.236-30.241-.05-4.787-.08-9.573-.04-5.651-.118-11.303a854 854 0 0 1-.045-6.075c-.189-11.782-1.746-24.153-9.804-33.301L1480 373l-2.77-2.61c-5.06-4.328-10.875-7.509-16.607-10.849-11.22-6.55-22.17-13.286-32.604-21.047a547 547 0 0 0-6.734-4.88c-26.09-18.796-47.007-37.826-53.472-70.676l-.47-2.374c-3.769-20.804-3.657-41.69-3.645-62.745q.001-5.296-.008-10.593-.016-12.507-.006-25.015a8033 8033 0 0 0-.027-25.654 7836 7836 0 0 1-.02-22.188c.001-4.393-.001-8.787-.015-13.181q-.018-6.198.002-12.394.004-2.25-.009-4.502c-.12-23.207 4.673-45.304 20.694-62.815 23.279-22.4 54.814-21.832 85.094-21.738M2581 3h147v397h28v85h-28l.494 11.654c.581 14.966.635 29.914.604 44.889q-.004 4.08-.005 8.157-.005 9.513-.021 19.027-.017 11.934-.023 23.869c-.01 14.134-.03 28.27-.049 42.404h-98V485h-132c-3.646-58.33 2.994-108.345 15.125-164.75l.567-2.64c4.47-20.79 9.061-41.554 13.696-62.308a2746 2746 0 0 0 9.753-45.622l.684-3.33a16129 16129 0 0 0 3.284-16.042c1.882-9.204 3.799-18.402 5.714-27.6q1.637-7.861 3.27-15.726l.687-3.303q4.784-23.019 9.564-46.038l.439-2.114 1.277-6.153zm56 98c-2.456 14.655-4.442 29.335-6.2 44.088-9.202 76.74-24.07 152.052-39.823 227.674l-1.846 8.884q-.63 3.025-1.267 6.05l-.75 3.61-.656 3.133c-.546 2.62-.546 2.62-.458 5.561h48a309226 309226 0 0 0 4.7-116.174l.1-2.473q.796-19.749 1.6-39.498.825-20.306 1.64-40.613.502-12.501 1.014-25.003.352-8.605.694-17.212.196-4.944.4-9.888c.665-16.056.998-32.069.852-48.139z"/><path fill="#141414" d="m2369.219-.168 4.647-.01q4.851-.009 9.702-.007 4.91 0 9.82-.02C2458.42-.474 2458.42-.474 2482 18l2.152 1.652c15.328 12.504 21.17 31.864 23.41 50.793.68 7.17.589 14.36.563 21.555l-.005 2.34c-.196 85.095-6.177 165.92-84.065 360.543-7.736 16.986-15.398 33.992-22.68 51.18l-.947 2.217c-5.71 13.404-10.48 26.974-15.428 40.72h116v86h-224c0-94.836 0-94.836 16.41-122.428 4.098-7.019 7.058-14.547 10.123-22.059a883 883 0 0 1 4.166-9.936c1.776-4.189 3.537-8.383 5.301-12.577l2.23-5.297A9551 9551 0 0 0 2331 425l.968-2.327c23.002-55.314 45.673-110.923 65.782-167.36l.74-2.064q1.037-2.909 2.057-5.823l1.151-3.269.59-1.903c.531-1.68 1.12-3.343 1.738-4.994 4.306-13.079 3.526-26.696 3.445-40.308-.017-3.656-.014-7.312-.013-10.969q-.004-9.195-.046-18.389c-.032-7.063-.042-14.125-.04-21.188q-.002-11.344-.032-22.69-.005-3.243-.006-6.486c-.003-4.041-.022-8.083-.043-12.124l.002-3.588c.329-11.205.329-11.205-3.679-21.229-3.682-2.94-8.015-2.507-12.489-2.539l-2.145-.062c-4.522-.034-7.45.42-10.98 3.312-2.203 3.395-2.259 6.257-2.278 10.252l-.034 3.892-.007 4.263-.03 4.495c-.028 4.065-.043 8.131-.056 12.197-.015 4.25-.042 8.499-.068 12.748q-.069 12.07-.116 24.14c-.039 9.16-.088 18.32-.138 27.481q-.155 28.266-.273 56.532c-3.9-1.261-7.3-2.583-10.816-4.695l-2.77-1.645-2.977-1.785A939 939 0 0 0 2330.5 213c-12.11-6.63-24.056-13.506-35.953-20.51-4.716-2.76-9.472-5.449-14.23-8.135C2278 183 2278 183 2277 182a65 65 0 0 1-.14-4.34l-.018-2.841-.003-3.143-.015-3.292q-.021-5.43-.027-10.857l-.017-7.548q-.015-6.924-.019-13.848-.007-10.14-.05-20.279a4560 4560 0 0 1-.035-17.624q-.004-3.727-.024-7.455c-.125-25.376 2.069-50.102 20.473-69.523 20.191-19.09 45.568-21.405 72.094-21.418M1955.238 71.285c8.866 6.18 14.197 14.104 18.762 23.715l1.446-1.126C1985.274 86.219 1995.114 78.58 2005 71c8.8 8.388 12.089 19.191 14 31v12h61c5.715 28.577-3.458 62.25-10.513 89.859-.561 2.1-.561 2.1-.487 4.141 30.378-35.518 37.037-84.173 42-129 3.046 2.657 4.75 5.814 6.723 9.313l1.049 1.848q1.65 2.917 3.29 5.839 1.65 2.92 3.302 5.839a2820 2820 0 0 1 2.988 5.298A105 105 0 0 0 2132 113c2.419.477 2.419.477 5.276.432l3.336.06 3.615.02 3.69.054c3.903.054 7.805.088 11.708.121q3.96.05 7.922.104 9.726.126 19.453.209c-3.49 85.212-19.968 166.213-67.437 238.5l-1.83 2.81c-.57.857-1.141 1.714-1.73 2.596l-1.536 2.323C2113 362 2113 362 2110 363a77 77 0 0 1-6.562-4.875l-1.874-1.509c-5.357-4.352-10.517-8.907-15.564-13.616 1.734-4.974 4.433-9.315 7.125-13.812l1.418-2.39q1.725-2.901 3.457-5.798c-7.662-1.87-15.33-2.908-23.152-3.875l-4.05-.515a5761 5761 0 0 0-17.08-2.151q-5.25-.654-10.496-1.33-2.961-.373-5.926-.734l-3.612-.465-3.188-.4C2028 311 2028 311 2026 309l6.313-8.25 1.802-2.355 1.748-2.286c.53-.69 1.058-1.382 1.603-2.094L2039 292l1.732-2.08c1.61-1.946 1.61-1.946.694-4.752-1.542-3.426-3.322-6.632-5.238-9.856-12.567-21.91-21.98-45.187-31.437-68.546-15.84-42.375-15.84-42.375-48.427-71.512-12.41-4.681-24.72-5.594-37.324-1.254-33.145 15.288-45.26 59.522-58.125 90.875-6.214 15.111-12.573 30.175-20.3 44.586l-1.712 3.194a421 421 0 0 1-3.332 6.038l-1.488 2.729-1.343 2.393c-.93 2.16-.93 2.16-.02 4.202a145 145 0 0 0 4.402 6.284l1.826 2.463 1.905 2.548q3.598 4.84 7.187 9.688l1.564 2.095C1853 315.771 1853 315.771 1853 318l-74 10 11 19c0 3 0 3-1.328 4.402l-1.922 1.536c-4.389 3.662-8.374 7.623-12.36 11.71-3.3 3.355-6.664 6.47-10.39 9.352h-2c-1.306-1.503-1.306-1.503-2.8-3.637l-1.693-2.405-1.82-2.646-1.89-2.73c-45.453-66.27-66.49-140.303-72.61-219.707l-.192-2.495a1376 1376 0 0 1-.515-7.075l-.15-2.057c-.386-5.785-.33-11.407-.33-17.248h56l2-6c1.05-2.083 1.05-2.083 2.172-3.953l1.256-2.113 1.322-2.184 1.354-2.262q1.332-2.225 2.671-4.447a490 490 0 0 0 3.147-5.338L1751.5 85l1.344-2.312C1754 81 1754 81 1756 80l.364 3.06c4.925 41.025 10.516 86.955 37.9 119.826C1796 205 1796 205 1798 208c-.23-.926-.461-1.851-.7-2.805-16.37-66.919-16.37-66.919-10.3-91.195h61v-13c1.907-11.452 5.515-21.926 14-30l8.015 6.297q4.968 3.9 9.926 7.812l1.904 1.501q1.812 1.43 3.622 2.86c2.464 1.94 4.922 3.79 7.533 5.53l1.137-2.414c5.854-12.121 12.613-20.089 25.55-25.023 12.035-3.569 24.622-2.553 35.551 3.722M935 3h96v548h65c-2.325 9.3-4.646 18.58-7.172 27.824l-.554 2.03-.567 2.076-1.186 4.356-2.458 9.01q-1.577 5.775-3.147 11.553-1.217 4.47-2.438 8.94l-1.161 4.266q-.805 2.956-1.615 5.913l-.925 3.394C1074 633 1074 633 1073 635H935z"/><path fill="#141414" d="M1749 2c3.766 1.505 5.543 3.634 8 6.813a202 202 0 0 0 11 12.687c4.46 4.76 8.638 9.665 12.723 14.754 2.93 3.534 6.043 6.883 9.17 10.242 4.002 4.326 7.733 8.828 11.427 13.422 2.05 2.832 2.05 2.832 5.403 3.398l3.34.246 3.347.254L1816 64l.816-2.187c4.06-9.645 11.048-17.44 17.835-25.242 2.023-2.356 3.964-4.777 5.911-7.196 4.601-5.66 9.482-11.026 14.438-16.375 5.81 4.321 11.544 8.732 17.25 13.188l4.703 3.667 2.068 1.614L1881 33l2.103 1.736L1885 36c2.512-.564 2.512-.564 5-2l2.656-1.367 2.844-1.508c19.672-9.848 41.656-11.594 62.71-5.508 5.746 1.962 11.086 4.82 16.427 7.676 3.564 1.838 3.564 1.838 7.363 2.707a72 72 0 0 0 6.875-5.25q1.996-1.658 3.996-3.312l2.058-1.723c3.285-2.72 6.646-5.342 10.008-7.965l3.528-2.766L2011 13c3.829 3.06 7.026 5.999 10.063 9.875 2.617 3.288 5.254 6.514 8.054 9.648 8.294 9.29 16.596 19.084 21.883 30.477 4.277.955 7.738 1.106 12 0 4.313-3.267 7.427-7.894 10.629-12.2 1.878-2.465 3.949-4.72 6.059-6.987a219 219 0 0 0 8.624-10.126c3.885-4.806 8-9.326 12.228-13.826 4.098-4.389 7.849-8.964 11.523-13.716 1.93-2.138 3.368-2.961 5.937-4.145l1.155 2.098C2128.213 20.532 2137.417 36.864 2147 53l.894 2.513c1.366 3.2 2.515 5.139 5.106 7.487 6.007 1.51 11.926 1.306 18.086 1.195q2.678.006 5.355.025c4.686.02 9.37-.018 14.056-.07 4.786-.042 9.572-.027 14.358-.017 9.383.01 18.763-.041 28.145-.133.828 96.463-8.531 189.417-80.187 321.438l-1.35 2.045c-1.256 1.826-1.256 1.826-3.463 4.517-4.383 0-6.78-2.626-10.062-5.25l-1.932-1.488-1.854-1.465-1.687-1.333c-1.671-1.67-2.519-3.313-3.465-5.464l1.278-1.87c9.036-13.263 17.676-26.594 25.381-40.683a691 691 0 0 1 3.88-6.959C2200.345 253.844 2207.503 168.4 2210 86h-72l-16-28c-4.468-7.52-4.468-7.52-9-15-6.852 6.78-13.334 13.862-19.375 21.375-4.005 4.973-8.262 9.655-12.64 14.298-2.22 2.365-4.18 4.62-5.985 7.327-2.98.267-5.749.348-8.727.293l-2.614-.013c-2.762-.017-5.523-.054-8.284-.093q-2.805-.022-5.61-.04-6.882-.053-13.765-.147l-.835-1.614C2029.04 72.654 2022.549 62.1 2014 52a965 965 0 0 1-4-5c-4.395.879-7.218 3.288-10.625 6.063l-1.869 1.487a370 370 0 0 0-8.506 6.993l-2.625 2.207c-.755.655-1.51 1.31-2.29 1.984C1982 67 1982 67 1979.993 66.957c-2.616-1.257-4.21-2.947-6.242-5.02-4.315-4.007-8.644-6.774-13.875-9.374l-1.99-.999c-14.193-6.787-29.65-6.809-44.447-1.876-9.255 3.655-17.234 8.283-23.72 15.906L1888 67c-4.4-.628-7.28-3.338-10.625-6.062l-1.869-1.488a370 370 0 0 1-8.506-6.993l-2.625-2.207c-.755-.655-1.51-1.31-2.29-1.984-1.964-1.437-1.964-1.437-4.089-1.278-4.785 2.425-7.815 7.833-10.996 12.012l-1.824 2.355c-3.854 5.22-6.9 10.745-9.895 16.48-.413.788-.827 1.574-1.253 2.384Q1832.512 83.108 1831 86c-5.39.249-10.775.43-16.168.55q-2.746.074-5.49.204c-15.166.703-15.166.703-20.45-2.836-2.283-2.522-4.105-5.03-5.892-7.918l-2.46-2.96-1.915-2.415c-3.695-4.572-7.583-8.895-11.59-13.19-3.724-4.021-7.142-8.225-10.476-12.572-1.436-1.968-1.436-1.968-3.559-2.863l-.727 2.527c-1.499 4.088-3.389 7.296-5.648 11.035C1740.622 65.634 1734.817 75.822 1729 86h-72c.742 36.501 2.447 72.876 8 109l.538 3.516c10.493 66.801 35.859 129.781 76.43 184.072 3.733 5.082 3.733 5.082 4.032 8.412-1.263 1.831-1.263 1.831-3.184 3.672l-2.06 2.012-2.194 2.066-2.181 2.113A596 596 0 0 1 1731 406c-3.29-1.097-3.682-1.568-5.566-4.29l-1.456-2.08-1.54-2.255-1.61-2.322q-2.425-3.519-4.828-7.053l-1.392-2.031c-9.26-13.541-17.585-27.603-25.5-41.967q-1.076-1.945-2.169-3.879C1652.171 278.551 1638.884 206.867 1635 137l-.13-2.267c-.875-15.542-.991-31.045-.932-46.608q.008-3.536.013-7.07.017-8.528.049-17.055l2.936.137a925 925 0 0 0 27.579.819c4.73.075 9.449.197 14.174.433 20.177 1.789 20.177 1.789 38.41-4.802 5.106-6.1 8.034-12.975 10.71-20.406 1.565-4.178 3.674-7.82 6.015-11.599q1.001-1.735 1.987-3.478 1.94-3.403 3.882-6.805l3.719-6.515Q1746.204 6.89 1749 2"/><path fill="#141414" d="M1933 143c13.03 0 22.305 3.156 32 12 14.152 15.065 21.72 36.422 29.12 55.325 2.249 5.738 4.54 11.458 6.833 17.179l1.34 3.348c6.582 16.378 13.621 32.552 22.852 47.639 1.6 2.694 2.822 4.859 2.984 8.025-1.73 3.809-4.3 6.755-7.004 9.921q-1.623 1.935-3.242 3.872l-1.686 2.013c-2.696 3.286-5.32 6.625-7.94 9.971L2003 319l2.84.366q13.224 1.707 26.445 3.442 6.796.892 13.596 1.769 6.557.844 13.11 1.711 2.506.33 5.014.649c2.333.297 4.665.606 6.997.918l2.114.262c1.639.225 3.265.545 4.884.883l1 2c-.713 1.696-.713 1.696-1.871 3.695l-1.24 2.168-1.327 2.262-1.314 2.285q-1.614 2.801-3.248 5.59c8.319 8.41 17.027 16.317 26.254 23.723 3.01 2.495 5.885 5.115 8.746 7.777 4.61 4.29 9.378 8.304 14.285 12.254 3.78 3.128 7.36 6.459 10.969 9.781 2.665 2.392 5.394 4.658 8.184 6.902A253 253 0 0 1 2159 426q-6.156.721-12.312 1.438l-3.479.408q-3.443.4-6.888.772c-2.142.246-4.28.533-6.41.87-4.75.672-7.054.993-11.337-1.41-.989-.914-1.95-1.86-2.887-2.828q-1.65-1.547-3.308-3.086l-1.683-1.604c-2.715-2.497-5.64-4.701-8.571-6.935-5.78-4.472-11.307-9.19-16.805-14.002a320 320 0 0 0-12.554-10.42c-3.666-2.92-7.277-5.906-10.891-8.89l-4.441-3.657a1949 1949 0 0 1-8.524-7.062c-6.661-5.52-13.41-10.805-20.535-15.719l-1.973-1.362c-8.064-5.455-14.372-7.719-24.155-7.496l-4.754.076-2.532.044c-5.381.08-10.764.092-16.146.115-4.72.024-9.437.073-14.156.176-4.578.1-9.151.13-13.73.114q-2.605.008-5.209.093c-13.19.409-13.19.409-17.397-2.99-3.01-3.3-5.197-6.972-7.307-10.888-1.604-2.774-3.585-5.114-5.641-7.57l-2.223-2.66L1911 319l-2.059-2.434c-4.312-4.985-8.83-9.408-13.941-13.566l-2.867-2.375c-10.9-8.834-22.704-15.381-36.133-19.625 2.623-25.714 12.527-56.41 30-76l1.898-2.145c6.165-6.567 13.06-11.39 22.204-12.093 7.895-.167 13.855.615 20.898 4.238l2 1zm-35 75c-.224 13.456 1.598 23.186 9.715 33.93 5.39 7.242 8.276 14.107 9.535 23.007.822 5.134.822 5.134 3.871 9.125 6.302 3.377 11.68 3.967 18.492 2.297 3.04-1.108 5.02-2.14 7.387-4.359 1.177-3.333 1.658-6.536 2.18-10.031 1.535-8.865 6.728-17.862 12.632-24.531 6.678-7.96 6.38-19.554 6.188-29.438l-2.424.275c-20.278 2.277-39.261 3.33-59.576.725q-2.267-.284-4.535-.566zm59.375 96.375-1.506 1.478c-2.805 2.83-4.97 5.644-6.869 9.147 3.739-1.63 6.593-4.003 9.75-6.562 14.385-11.292 32.748-21.187 50.25-26.438-.53-4.51-2.309-7.384-5-11-15.306 0-36.337 23.206-46.625 33.375M1937 369c2.839 1.344 2.839 1.344 5.797 3.07l3.368 1.946 3.585 2.109 3.722 2.16a2629 2629 0 0 1 7.69 4.477c3.694 2.157 7.4 4.295 11.111 6.426 28.009 16.094 28.009 16.094 29.727 17.812.095 2.495.126 4.962.114 7.457v2.365c0 2.592-.009 5.184-.016 7.776l-.005 5.376q-.006 7.09-.024 14.18-.014 7.229-.02 14.457-.016 14.195-.049 28.389l-2.277 1.26q-4.282 2.37-8.562 4.744l-3.668 2.03a1168 1168 0 0 0-25.18 14.341l-5.88 3.434a973 973 0 0 0-10.273 6.101l-4.285 2.528-1.882 1.163c-4.162 2.425-6.38 2.517-10.993 1.399-2.488-1.177-2.488-1.177-4.957-2.668l-2.834-1.686-3.022-1.833a3907 3907 0 0 0-6.457-3.84l-3.357-1.996c-6.364-3.73-12.827-7.282-19.294-10.83a263 263 0 0 1-5.65-3.217 111 111 0 0 0-7.462-3.832c-10.563-5.277-10.563-5.277-12.9-9.972-1.471-5.276-1.235-10.674-1.087-16.103a895 895 0 0 0-.024-5.213c-.01-3.628.035-7.25.123-10.877.108-4.635.086-9.258.024-13.893-.035-3.584-.007-7.165.04-10.748q.026-2.56-.007-5.121c-.042-5.345.146-10.079 1.864-15.171 3.942-3.871 7.925-5.795 13-8a328 328 0 0 0 6.14-3.492q3.053-1.695 6.11-3.383c7.399-4.114 14.774-8.255 22.063-12.562l2.045-1.202a332 332 0 0 0 9.134-5.564l3.196-1.985 2.699-1.73c3.381-1.4 5.071-.923 8.613-.082m-12.152 27.07-1.863.966q-1.963 1.02-3.922 2.043-2.94 1.536-5.885 3.062A1002 1002 0 0 0 1891 414c4.246 3.533 8.735 6.587 13.328 9.64l2.393 1.598q2.49 1.66 4.982 3.318 3.832 2.55 7.656 5.108l4.844 3.227 2.323 1.552c3.016 2.429 3.016 2.429 6.474 3.557v-49c-3.148 0-5.379 1.627-8.152 3.07"/><path fill="#141414" d="M1953 360q11.743-.113 23.486-.165 3.993-.02 7.985-.061c3.832-.037 7.665-.054 11.498-.067 1.183-.015 2.367-.03 3.587-.047 9.863-.002 16.475 1.837 23.819 8.527l3.39 2.973 1.663 1.47c2.18 1.9 4.43 3.7 6.697 5.495 5.339 4.235 10.607 8.553 15.875 12.875l5.5 4.5 13.773 11.27 5.266 4.304c6.41 5.238 12.8 10.498 19.189 15.761A5430 5430 0 0 0 2112 441q4.124 3.374 8.246 6.75 2.763 2.257 5.54 4.5A992 992 0 0 1 2134 459l2.703 2.145c8.004 6.65 13.291 15.079 15.113 25.449.964 12.628-2.233 23.303-10.203 33.113-6.457 7.176-15.702 11.915-25.336 12.531-12.117.312-21.58-1.17-31.168-9.21-6.774-6.511-11.95-14.498-17.355-22.141a1594 1594 0 0 0-9.004-12.574l-1.645-2.279a2044 2044 0 0 0-12.293-16.784c-9.973-13.499-9.973-13.499-13.246-18.299-1.977-2.878-3.865-5.248-6.367-7.728-4.45-4.617-7.101-8.313-7.324-14.936q.06-2.12.156-4.24l.1-2.206.105-2.25c1.09-12.8 1.09-12.8-3.306-24.288-5.805-4.616-12.55-7.214-19.422-9.853-5.708-2.36-10.866-5.56-16.133-8.762a2406 2406 0 0 0-5.914-3.47L1968 370l-2.499-1.469a1940 1940 0 0 1-6.501-3.844l-1.89-1.112A141 141 0 0 1 1953 361zM1862.822 359.773h3.396l3.618.032 3.74.008c3.934.011 7.866.037 11.799.062q4.005.017 8.012.027 9.807.034 19.613.098c-2.387 2.433-4.469 4.48-7.484 6.086l-2.047 1.11-2.219 1.179c-5.422 2.944-10.812 5.93-16.14 9.04l-3.042 1.774a466 466 0 0 0-6.13 3.683c-4.73 2.86-9.15 5.344-14.434 7.015-7.392 2.5-7.392 2.5-12.504 8.113-1.365 7.256-1.224 14.576-.685 21.919.578 9.317-.173 14.688-6.41 21.876A361 361 0 0 1 1838 446a91 91 0 0 0-2.707 3.7 2510 2510 0 0 1-5.914 8.362c-2.545 3.576-5.12 7.131-7.691 10.688l-5.02 6.94a4813 4813 0 0 0-4.895 6.79A4626 4626 0 0 1 1802 496l-1.82 2.51q-2.772 3.811-5.555 7.615l-1.693 2.332c-7.783 10.605-16.213 21.205-29.932 23.543-12.752 1.019-23.873.1-34.156-8.309-7.953-7.295-13.38-15.436-14.082-26.414-.308-11.95 1.085-21.494 9.011-30.972 7.235-7.489 15.71-13.73 23.916-20.103 4.907-3.83 9.63-7.852 14.335-11.926a372 372 0 0 1 12.554-10.354c4.519-3.586 8.962-7.264 13.422-10.922l5.125-4.188c4.8-3.926 9.589-7.868 14.375-11.812 5.648-4.654 11.3-9.302 16.969-13.93q2.6-2.126 5.187-4.265 4.155-3.424 8.344-6.805l1.652-1.336a677 677 0 0 1 5.16-4.102l1.598-1.288c5.173-4.036 9.891-5.53 16.412-5.501M2017 495l2 1-1.582 1.695c-6.051 6.592-11.602 13.472-17.063 20.555a493 493 0 0 1-3.855 4.902c-26.115 33.188-46.497 71.909-62.5 110.848h-1v-91l27-15c8.89-5.166 8.89-5.166 17.766-10.36 8.312-4.87 16.688-9.632 25.06-14.4l3.404-1.94 3.013-1.713a125 125 0 0 0 5.493-3.356z"/></svg>